<svg width="80" height="80" viewBox="0 0 80 80" fill="none" xmlns="http://www.w3.org/2000/svg">
<path d="M75.8242 22.3355C76.9389 22.9279 77.8224 23.8802 78.2744 25.2051C79.093 27.6045 77.777 29.7999 75.7887 31.4657C74.822 32.2755 73.6964 32.9602 72.5799 33.4822L57.0084 40.7634L36.0975 50.5413L30.6788 53.0751L24.3136 56.0515L1 66.9528L68.5633 23.7854C70.7802 22.3689 73.5011 21.1008 75.8242 22.3355Z" fill="black"/>
<path d="M69.867 26.8827L69.113 27.3373C68.1263 27.9322 67.8795 29.2548 68.5853 30.1655V30.1655C69.1846 30.9387 70.2684 31.1396 71.105 30.6326L72.9333 29.5246C73.8873 28.9464 74.1507 27.6804 73.5065 26.7697V26.7697C72.9247 25.9472 71.8066 25.7132 70.9438 26.2334L69.867 26.8827ZM69.867 26.8827C71.8837 28.5968 73.9835 29.6787 75.7954 31.4724C79.5312 35.1707 77.3738 41.1367 73.6103 44.8069L71.3168 47.0435C70.7763 47.5706 70.6504 48.392 71.0083 49.0568V49.0568C71.4979 49.9665 72.6813 50.2289 73.5096 49.6113L76.7934 47.1629C77.4017 46.7094 78.2451 46.8886 78.4469 47.62C78.7738 48.8046 78.9572 50.727 77.9194 53.0751M64.9589 18.9453C66.3648 19.2834 69.054 20.7247 68.5633 23.7854M68.5633 23.7854L1 66.9528L24.3136 56.0515L30.6788 53.0751L36.0975 50.5413L57.0084 40.7634L72.5799 33.4822C75.993 31.8863 79.491 28.771 78.2744 25.2051C77.8224 23.8802 76.9389 22.9279 75.8242 22.3355C73.5011 21.1008 70.7802 22.3689 68.5633 23.7854V23.7854Z" stroke="black" stroke-width="0.5"/>
<path d="M71.8717 30.2493L73.7 29.1413C74.654 28.5631 74.9174 27.2972 74.2732 26.3864C73.6914 25.5639 72.5733 25.3299 71.7105 25.8501L70.6337 26.4994L69.8797 26.954C68.893 27.5489 68.6462 28.8715 69.352 29.7822C69.9513 30.5554 71.0351 30.7564 71.8717 30.2493Z" fill="white"/>
<path d="M69.8673 26.8827C71.884 28.5968 73.9839 29.6787 75.7958 31.4724C79.5316 35.1707 77.3742 41.1367 73.6107 44.8069L71.3172 47.0435C70.7767 47.5706 70.6508 48.392 71.0086 49.0568V49.0568C71.4983 49.9665 72.6817 50.2289 73.5099 49.6113L76.7938 47.1629C77.402 46.7094 78.2455 46.8886 78.4473 47.62C78.7741 48.8047 78.9576 50.727 77.9197 53.0751M64.9592 18.9453C66.3652 19.2834 69.0544 20.7247 68.5636 23.7854" stroke="black" stroke-width="0.5"/>
<path d="M69.7136 5.98481V1H9.66589V5.98481M69.7136 5.98481H9.66589M69.7136 5.98481L64.9589 13.8838M9.66589 5.98481L11.907 9.28245L15.0341 13.8838M15.0341 13.8838H17.6416M15.0341 13.8838V16.9514M64.9589 13.8838H52.0751M64.9589 13.8838V16.2612M64.9589 65.0356L69.7136 72.7812M64.9589 65.0356H59.2072M64.9589 65.0356V63.5315M15.0341 65.0356L9.66589 72.7812M15.0341 65.0356V48.5474M15.0341 65.0356H38.1176M9.66589 72.7812H69.7136M9.66589 72.7812V78.0728H69.7136V72.7812M52.0751 13.8838L28.5315 21.427M52.0751 13.8838H17.6416M64.9589 16.2612L34.82 25.7706M64.9589 16.2612V18.9453M64.9589 21.6294L40.7078 29.6818M64.9589 21.6294V46.3234M64.9589 21.6294V18.9453M17.6416 13.8838L49.6977 35.8389M15.0341 18.4852L64.9364 51.1575C67.3479 52.7364 70.9507 55.3238 68.9796 57.4269C68.252 58.2032 66.8897 58.5471 64.9589 57.9035M15.0341 18.4852C12.4267 16.9514 9.35914 20.4024 12.4267 22.8565M15.0341 18.4852V16.9514M64.9589 57.9035L12.4267 22.8565M64.9589 57.9035C68.3529 60.1661 67.2162 63.2147 64.9589 63.5315M12.4267 22.8565C9.05238 21.6294 6.7517 24.7737 9.66589 27.6112L15.0341 31.19M15.0341 36.6605L30.9855 47.7945M15.0341 36.6605V42.7957M15.0341 36.6605V31.19M15.0341 42.7957L26.3075 50.7834M15.0341 42.7957V48.5474M15.0341 48.5474C-1.07054 44.6362 -0.226954 18.4852 15.0341 16.9514M15.0341 48.5474V50.7834L21.0159 54.1643M24.3136 56.0515L1 66.9528L68.5633 23.7853M24.3136 56.0515L38.1176 65.0356M24.3136 56.0515L30.6788 53.0751M38.1176 65.0356H49.0842M30.6788 53.0751L49.0842 65.0356M30.6788 53.0751L36.0975 50.5413M49.0842 65.0356H59.2072M36.0975 50.5413L59.2072 65.0356M36.0975 50.5413L57.0084 40.7634M57.0084 40.7634L72.2177 33.6516C75.8623 31.9474 79.7076 28.5336 78.1316 24.8318C77.6496 23.6997 76.8312 22.8707 75.8242 22.3355C73.5011 21.1008 70.7802 22.3689 68.5633 23.7853V23.7853M57.0084 40.7634L64.9589 46.3234M64.9589 46.3234V51.1723M70 26.5L69.3095 26.8452C68.071 27.4645 67.6347 29.0154 68.3685 30.1896V30.1896C69.0101 31.2161 70.3268 31.5866 71.4095 31.0452L72.5 30.5L74.1124 29.5786C75.1714 28.9735 75.5732 27.6464 75.0278 26.5555V26.5555C74.4601 25.4203 73.0797 24.9601 71.9445 25.5278L70 26.5ZM70 26.5C72.0459 28.239 74.1389 29.4376 75.9329 31.3806C79.499 35.2428 77.3738 41.1367 73.6103 44.8069L71.3168 47.0435C70.7763 47.5706 70.6504 48.392 71.0083 49.0568V49.0568C71.4979 49.9665 72.6813 50.2288 73.5096 49.6113L76.7934 47.1629C77.4017 46.7094 78.2451 46.8885 78.4469 47.62C78.7738 48.8046 78.9572 50.7269 77.9194 53.0751M15.0341 31.19L62.8116 63.0417C63.566 63.4874 64.3089 63.6227 64.9589 63.5315M64.9589 18.9453C66.3648 19.2834 69.054 20.7247 68.5633 23.7853" stroke="black" stroke-width="0.5"/>
</svg>
