<svg width="81" height="80" viewBox="0 0 81 80" fill="none" xmlns="http://www.w3.org/2000/svg">
<path d="M9 28.0002C9 29.2939 7.9513 30.3426 6.65766 30.3426C5.36402 30.3426 4.31532 29.2939 4.31532 28.0002C4.31532 26.7066 5.36402 25.6579 6.65766 25.6579C7.9513 25.6579 9 26.7066 9 28.0002Z" fill="black"/>
<path d="M76.3423 11.1577C76.3423 12.4513 75.2936 13.5 74 13.5C72.7064 13.5 71.6577 12.4513 71.6577 11.1577C71.6577 9.86402 72.7064 8.81532 74 8.81532C75.2936 8.81532 76.3423 9.86402 76.3423 11.1577Z" fill="black"/>
<path d="M12.1113 25.0005H73.1348L77.1506 28.2288L73.1348 32.0871H12.1113M12.1113 25.0005V32.0871M12.1113 25.0005C11.0876 21.6933 4.89626 20.9045 2.5837 23.8193C0.748936 26.1319 0.433418 29.1332 2.03252 31.6145C4.31598 35.1578 8.80417 35.0003 12.1113 32.0871M25.7333 20.9846V35.5515M25.7333 35.5515L18.4105 42.8744L51.2451 75.0003L70.6152 55.394L51.2451 35.5515M25.7333 35.5515L64.1585 75.0003L70.6152 67.205L39.2766 35.5515M51.2451 35.5515L18.4105 68.5436L25.7333 75.0003L64.1585 35.5515M51.2451 35.5515V20.9846M64.1585 35.5515L70.6152 42.8744L38.4104 75.0003L18.4105 55.394L28.8435 45.4728L39.2766 35.5515M64.1585 35.5515V20.9846M39.2766 35.5515V20.9846M9 28.0002C9 29.2939 7.9513 30.3426 6.65766 30.3426C5.36402 30.3426 4.31532 29.2939 4.31532 28.0002C4.31532 26.7066 5.36402 25.6579 6.65766 25.6579C7.9513 25.6579 9 26.7066 9 28.0002ZM76.3423 11.1577C76.3423 12.4513 75.2936 13.5 74 13.5C72.7064 13.5 71.6577 12.4513 71.6577 11.1577C71.6577 9.86402 72.7064 8.81532 74 8.81532C75.2936 8.81532 76.3423 9.86402 76.3423 11.1577Z" stroke="black"/>
<path d="M32 42L25 49L31.5 55.5L38.5 48.5L32 42Z" fill="black"/>
<path d="M18.5 68.5L25 62L32 68.5L25.5 75L18.5 68.5Z" fill="black"/>
<path d="M38.5 62L45 55L51.5 62L45 68.5L38.5 62Z" fill="black"/>
<path d="M58 42L52 48L58.5 55L64.5 49L58 42Z" fill="black"/>
<path d="M65 61L58 68.5L64 75L71 67L65 61Z" fill="black"/>
<path d="M68.3944 7.98869H5.16951L1.00891 11.2246L5.16951 15.0919H68.3944M68.3944 7.98869V15.0919M68.3944 7.98869C69.455 4.67376 75.8697 3.88316 78.2657 6.80479C80.1666 9.12277 80.4935 12.1311 78.8367 14.6183C76.4709 18.1699 71.8208 18.0121 68.3944 15.0919" stroke="black"/>
</svg>
