<svg width="81" height="80" viewBox="0 0 81 80" fill="none" xmlns="http://www.w3.org/2000/svg">
<path d="M8.00223 38.0778V76H73.0679V38.0778M8.00223 38.0778L1 56.2521M8.00223 38.0778H18.3089M73.0679 38.0778L79.8341 56.2521M73.0679 38.0778H61.8958M18.3089 38.0778V28.6366L13.1162 33.3572L1 24.7814L13.9868 10.0768C15.2049 8.69763 16.8611 7.78052 18.6764 7.47997L27.7501 5.9777M18.3089 38.0778H61.8958M27.7501 5.9777C30.8185 12.744 43.4855 20.4543 52.4546 5.9777M27.7501 5.9777C27.3567 3.4601 31.1124 3.22407 33.6509 5.9777C38.2928 11.013 43.4855 9.59683 47.8127 5.9777C51.2745 3.08239 52.3497 4.77132 52.4546 5.9777M52.4546 5.9777L61.6197 7.49509C63.3791 7.7864 64.9909 8.65728 66.1987 9.96941L79.8341 24.7814L69.0554 33.3572L61.8958 28.6366V38.0778M43.4855 24.27V24.27C43.4855 22.7275 44.7359 21.477 46.2785 21.477H54.1462C55.6887 21.477 56.9392 22.7275 56.9392 24.27V24.27C56.9392 25.8126 55.6887 27.0631 54.1462 27.0631H46.2785C44.7359 27.0631 43.4855 25.8126 43.4855 24.27Z" stroke="black" stroke-width="0.5"/>
<path d="M39.5972 49.4751V54.7041C39.5972 55.8087 38.7017 56.7041 37.5972 56.7041H32.6281M32.6281 58.3332H37.5972C38.7017 58.3332 39.5972 59.2286 39.5972 60.3332V65.0531M41.2369 65.0531V60.3332C41.2369 59.2286 42.1324 58.3332 43.2369 58.3332H48.2061M48.2061 56.7041H43.2369C42.1324 56.7041 41.2369 55.8087 41.2369 54.7041V49.4751" stroke="black" stroke-width="0.5"/>
<path d="M52.4831 5.9777C43.5139 20.4543 30.847 12.744 27.7786 5.9777C27.3852 3.4601 31.1408 3.22407 33.6793 5.9777C38.3213 11.013 43.5139 9.59683 47.8411 5.9777C51.3029 3.0824 52.3782 4.77132 52.4831 5.9777Z" fill="black" stroke="black" stroke-width="0.5"/>
</svg>
